<?xml version="1.0" standalone="no"?>
<!DOCTYPE svg PUBLIC "-//W3C//DTD SVG 20010904//EN"
 "http://www.w3.org/TR/2001/REC-SVG-20010904/DTD/svg10.dtd">
<svg version="1.0" xmlns="http://www.w3.org/2000/svg"
 width="1280.000000pt" height="1257.000000pt" viewBox="0 0 1280.000000 1257.000000"
 preserveAspectRatio="xMidYMid meet">
<metadata>
Created by potrace 1.15, written by Peter Selinger 2001-2017
</metadata>
<g transform="translate(0.000000,1257.000000) scale(0.100000,-0.100000)"
fill="#000000" stroke="none">
<path d="M9090 12563 c-306 -20 -415 -32 -647 -69 -1600 -253 -3327 -1132
-4856 -2470 -414 -363 -884 -839 -1248 -1264 -622 -726 -1113 -1461 -1513
-2260 -689 -1379 -956 -2720 -766 -3848 123 -724 457 -1364 945 -1805 519
-469 1149 -733 1965 -824 214 -24 747 -24 980 0 944 97 1840 371 2820 862
2304 1153 4381 3300 5385 5565 553 1248 756 2450 585 3468 -123 726 -458 1365
-950 1810 -545 494 -1253 772 -2120 832 -132 9 -468 11 -580 3z m2168 -1605
c74 -74 -152 -505 -566 -1083 -1295 -1806 -3846 -4309 -6722 -6596 -1304
-1037 -2343 -1750 -2428 -1665 -149 149 1873 2333 4518 4882 2450 2359 4628
4259 5108 4454 56 22 74 24 90 8z"/>
</g>
</svg>
