<?xml version="1.0" standalone="no"?>
<!DOCTYPE svg PUBLIC "-//W3C//DTD SVG 20010904//EN"
 "http://www.w3.org/TR/2001/REC-SVG-20010904/DTD/svg10.dtd">
<svg version="1.0" xmlns="http://www.w3.org/2000/svg"
 width="1280.000000pt" height="1280.000000pt" viewBox="0 0 1280.000000 1280.000000"
 preserveAspectRatio="xMidYMid meet">
<metadata>
Created by potrace 1.15, written by Peter Selinger 2001-2017
</metadata>
<g transform="translate(0.000000,1280.000000) scale(0.100000,-0.100000)"
fill="#000000" stroke="none">
<path d="M3050 11879 c-547 -59 -1067 -277 -1520 -637 -123 -98 -376 -351
-472 -472 -346 -439 -548 -901 -634 -1450 -21 -141 -30 -522 -15 -676 40 -403
144 -763 332 -1153 100 -207 156 -306 286 -504 236 -361 485 -659 878 -1052
349 -350 641 -608 1410 -1250 618 -516 858 -724 1180 -1025 866 -809 1473
-1638 1854 -2530 22 -52 44 -94 48 -93 4 0 37 68 73 150 388 872 954 1645
1774 2421 332 314 565 518 1151 1007 437 365 537 449 735 620 977 842 1540
1494 1889 2185 361 715 463 1431 305 2137 -266 1189 -1277 2131 -2479 2310
-171 25 -602 25 -765 0 -586 -92 -1106 -350 -1572 -780 -231 -213 -419 -437
-612 -727 -172 -257 -295 -480 -425 -772 -36 -81 -70 -147 -75 -148 -5 0 -28
45 -53 102 -170 397 -414 807 -670 1129 -133 168 -442 476 -593 593 -290 224
-607 395 -925 499 -109 36 -308 83 -435 102 -124 20 -542 28 -670 14z"/>
</g>
</svg>
